<svg width="49" height="61" fill="none" xmlns="http://www.w3.org/2000/svg"><path d="M36.6 7.117V12.2h9.15a3.05 3.05 0 1 1 0 6.1H3.05a3.05 3.05 0 1 1 0-6.1h9.15V7.117A7.12 7.12 0 0 1 19.317 0h10.166A7.12 7.12 0 0 1 36.6 7.117ZM10.15 27.145l2.684 26.84a1.016 1.016 0 0 0 1.013.915h21.106a1.017 1.017 0 0 0 1.013-.915l2.684-26.84a3.05 3.05 0 0 1 6.067.606l-2.684 26.84A7.109 7.109 0 0 1 34.953 61H13.847a7.117 7.117 0 0 1-7.08-6.405l-2.684-26.84a3.05 3.05 0 1 1 6.067-.61ZM18.3 7.117V12.2h12.2V7.117A1.017 1.017 0 0 0 29.483 6.1H19.317A1.016 1.016 0 0 0 18.3 7.117Z" fill="#fff"/></svg>