<svg width="40" height="48" viewBox="0 0 40 48" fill="none" xmlns="http://www.w3.org/2000/svg">
<path d="M13.637 12.7272C13.637 12.0039 13.9243 11.3102 14.4358 10.7988C14.9472 10.2873 15.6409 10 16.3642 10H27.2731C27.9964 10 28.6901 10.2873 29.2016 10.7988C29.713 11.3102 30.0003 12.0039 30.0003 12.7272V30.9087C30.0003 31.632 29.713 32.3257 29.2016 32.8372C28.6901 33.3486 27.9964 33.6359 27.2731 33.6359M12.7272 13.6364H23.6361C25.1423 13.6364 26.3633 14.8574 26.3633 16.3636V34.5451C26.3633 36.0513 25.1423 37.2724 23.6361 37.2724H12.7272C11.221 37.2724 10 36.0513 10 34.5451V16.3636C10 14.8574 11.221 13.6364 12.7272 13.6364Z" stroke="white" stroke-width="2.53333"/>
</svg>
