<svg width="72" height="80" viewBox="0 0 72 80" fill="none" xmlns="http://www.w3.org/2000/svg">
<path d="M20 32H12C9.87827 32 7.84344 32.8429 6.34315 34.3431C4.84285 35.8434 4 37.8783 4 40V68C4 70.1217 4.84285 72.1566 6.34315 73.6569C7.84344 75.1571 9.87827 76 12 76H60C62.1217 76 64.1566 75.1571 65.6569 73.6569C67.1572 72.1566 68 70.1217 68 68V40C68 37.8783 65.6569 34.3431 65.6569 34.3431C65.6569 34.3431 62.1217 32 60 32C60 32 55.1242 32 52 32M20 32V20C20 15.7565 21.6857 11.6869 24.6863 8.68629C27.6869 5.68571 31.7565 4 36 4C40.2435 4 44.3131 5.68571 47.3137 8.68629C50.3143 11.6869 52 15.7565 52 20C52 20 52 27.3137 52 32M20 32C20 32 39.5032 32 52 32M36 48V60" stroke="white" stroke-width="8" stroke-linecap="round" stroke-linejoin="round"/>
</svg>
