<svg width="27" height="28" viewBox="0 0 27 28" fill="none" xmlns="http://www.w3.org/2000/svg">
<g id="Copiar">
<path id="Vector" d="M16.1913 9.0798H2.69133C1.20228 9.0798 -0.00866699 10.2908 -0.00866699 11.7798V25.2798C-0.00866699 26.7689 1.20228 27.9798 2.69133 27.9798H16.1913C17.6804 27.9798 18.8913 26.7689 18.8913 25.2798V11.7798C18.8913 10.2908 17.6804 9.0798 16.1913 9.0798Z" fill="white"/>
<path id="Vector_2" d="M24.2916 0.979828H10.7916C10.0755 0.979828 9.38871 1.26429 8.88236 1.77064C8.37602 2.27699 8.09155 2.96374 8.09155 3.67983V6.37983H18.8916C19.6076 6.37983 20.2944 6.66429 20.8007 7.17064C21.3071 7.67699 21.5916 8.36374 21.5916 9.07983V19.8798H24.2916C25.0076 19.8798 25.6944 19.5954 26.2007 19.089C26.7071 18.5827 26.9916 17.8959 26.9916 17.1798V3.67983C26.9916 2.96374 26.7071 2.27699 26.2007 1.77064C25.6944 1.26429 25.0076 0.979828 24.2916 0.979828Z" fill="white"/>
</g>
</svg>
