<svg width="80" height="80" viewBox="0 0 80 80" fill="none" xmlns="http://www.w3.org/2000/svg">
<path d="M48 24H8C3.588 24 0 27.588 0 32V72C0 76.412 3.588 80 8 80H48C52.412 80 56 76.412 56 72V32C56 27.588 52.412 24 48 24Z" fill="white"/>
<path d="M72 0H32C29.8783 0 27.8434 0.842854 26.3431 2.34315C24.8429 3.84344 24 5.87827 24 8V16H56C58.1217 16 60.1566 16.8429 61.6569 18.3431C63.1571 19.8434 64 21.8783 64 24V56H72C74.1217 56 76.1566 55.1571 77.6569 53.6569C79.1571 52.1566 80 50.1217 80 48V8C80 5.87827 79.1571 3.84344 77.6569 2.34315C76.1566 0.842854 74.1217 0 72 0Z" fill="white"/>
</svg>
