<svg width="48" height="64" viewBox="0 0 48 64" fill="none" xmlns="http://www.w3.org/2000/svg">
<path d="M32 10H8C4.68629 10 2 12.6863 2 16V56C2 59.3137 4.68629 62 8 62H32C35.3137 62 38 59.3137 38 56V16C38 12.6863 35.3137 10 32 10Z" stroke="white" stroke-width="4"/>
<path d="M10 8C10 6.4087 10.6321 4.88258 11.7574 3.75736C12.8826 2.63214 14.4087 2 16 2H40C41.5913 2 43.1174 2.63214 44.2426 3.75736C45.3679 4.88258 46 6.4087 46 8V48C46 49.5913 45.3679 51.1174 44.2426 52.2426C43.1174 53.3679 41.5913 54 40 54" stroke="white" stroke-width="4"/>
</svg>
