<svg xmlns="http://www.w3.org/2000/svg" version="1.1" xmlns:xlink="http://www.w3.org/1999/xlink" xmlns:svgjs="http://svgjs.dev/svgjs" width="1920" height="1080" preserveAspectRatio="none" viewBox="0 0 1920 1080"><g mask="url(&quot;#SvgjsMask1119&quot;)" fill="none"><rect width="1920" height="1080" x="0" y="0" fill="#0e2a47"></rect><path d="M0,895.751C163.649,915.992,275.982,734.229,417.904,650.272C566.711,562.243,802.141,555.016,854.519,390.246C908.53,220.341,716.715,72.98,654.533,-94.108C608.37,-218.151,592.886,-345.073,536.336,-464.738C460.469,-625.279,435.705,-854.311,267.877,-912.304C101.919,-969.651,-58.781,-808.46,-212.432,-723.476C-335.996,-655.133,-446.399,-573.644,-538.278,-466.42C-629.723,-359.702,-700.907,-241.227,-741.069,-106.55C-786.441,45.598,-864.022,220.893,-784.164,358.116C-703.61,496.536,-488.45,463.946,-356.361,554.508C-217.912,649.431,-166.596,875.146,0,895.751" fill="#091b2e"></path><path d="M1920 1968.963C2086.541 1958.5720000000001 2154.842 1746.2240000000002 2271.448 1626.863 2359.241 1536.996 2453.087 1460.249 2520.527 1354.251 2597.325 1233.545 2690.899 1112.382 2689.8 969.3199999999999 2688.648 819.354 2619.951 671.494 2514.464 564.894 2411.923 461.27099999999996 2264.908 419.30899999999997 2121.212 394.73400000000004 1989.241 372.16499999999996 1854.393 382.832 1729.325 430.621 1610.595 475.98900000000003 1517.086 562.704 1432.755 657.8 1347.5810000000001 753.847 1274.193 858.477 1240.138 982.251 1202.859 1117.744 1174.0140000000001 1266.221 1229.877 1395.1689999999999 1286.068 1524.874 1430.499 1582.181 1539.191 1672.551 1665.437 1777.517 1756.136 1979.187 1920 1968.963" fill="#133960"></path></g><defs><mask id="SvgjsMask1119"><rect width="1920" height="1080" fill="#ffffff"></rect></mask></defs></svg>