<svg width="1920" height="1200" fill="none" xmlns="http://www.w3.org/2000/svg"><g clip-path="url(#a)"><mask id="b" style="mask-type:luminance" maskUnits="userSpaceOnUse" x="0" y="0" width="1920" height="1200"><path d="M0 1200h1920V0H0v1200Z" fill="#fff"/></mask><g mask="url(#b)"><path d="M0 1200h1920V0H0v1200Z" fill="#0E2A47"/><path d="M0 1200h427.04L0 701.4V1200Z" fill="#fff" fill-opacity=".1"/><path d="M427.04 1200 0 701.4v-74.71L1075.89 1200H427.04Z" fill="#fff" fill-opacity=".075"/><path d="M1075.89 1200 0 626.69V515.22L1188.52 1200h-112.63Z" fill="#fff" fill-opacity=".05"/><path d="M1188.52 1200 0 515.22V367.63L1197.82 1200h-9.3Z" fill="#fff" fill-opacity=".025"/><path d="M1920 0h-855.09L1920 363.03V0Z" fill="#000" fill-opacity=".1"/><path d="M1920 363.03 1064.91 0h-18.73L1920 771.15V363.03Z" fill="#000" fill-opacity=".075"/><path d="M1920 771.15 1046.18 0H471.44L1920 777.42v-6.27Z" fill="#000" fill-opacity=".05"/><path d="M1920 777.42 471.44 0H228.26L1920 921.14V777.42Z" fill="#000" fill-opacity=".025"/></g></g><defs><clipPath id="a"><path fill="#fff" d="M0 0h1920v1200H0z"/></clipPath></defs></svg>