<svg xmlns="http://www.w3.org/2000/svg" version="1.1" xmlns:xlink="http://www.w3.org/1999/xlink" xmlns:svgjs="http://svgjs.dev/svgjs" width="1920" height="1200" preserveAspectRatio="none" viewBox="0 0 1920 1200"><g mask="url(&quot;#SvgjsMask1067&quot;)" fill="none"><rect width="1920" height="1200" x="0" y="0" fill="#0e2a47"></rect><path d="M1644.292,1039.775C1732.658,1035.775,1791.178,956.668,1831.804,878.093C1868.464,807.188,1877.968,726.841,1843.253,654.963C1803.08,571.784,1736.478,495.704,1644.292,489.843C1543.263,483.419,1444.155,537.438,1396.086,626.531C1350.026,711.9,1374.933,813.356,1424.879,896.511C1473.083,976.766,1550.769,1044.008,1644.292,1039.775" fill="rgba(28, 83, 142, 0.4)" class="triangle-float2"></path><path d="M1223.91 280.18 a368.87 368.87 0 1 0 737.74 0 a368.87 368.87 0 1 0 -737.74 0z" fill="rgba(28, 83, 142, 0.4)" class="triangle-float3"></path><path d="M-333.36 719.62 a352.96 352.96 0 1 0 705.92 0 a352.96 352.96 0 1 0 -705.92 0z" fill="rgba(28, 83, 142, 0.4)" class="triangle-float3"></path><path d="M182.9964295907533 348.15646811955156L292.2591013544943 158.9079692540309-46.24498282565722 89.63821104117977z" fill="rgba(28, 83, 142, 0.4)" class="triangle-float3"></path><path d="M610.58 1032.63 a255.32 255.32 0 1 0 510.64 0 a255.32 255.32 0 1 0 -510.64 0z" fill="rgba(28, 83, 142, 0.4)" class="triangle-float3"></path></g><defs><mask id="SvgjsMask1067"><rect width="1920" height="1200" fill="#ffffff"></rect></mask><style>
                @keyframes float1 {
                    0%{transform: translate(0, 0)}
                    50%{transform: translate(-10px, 0)}
                    100%{transform: translate(0, 0)}
                }

                .triangle-float1 {
                    animation: float1 5s infinite;
                }

                @keyframes float2 {
                    0%{transform: translate(0, 0)}
                    50%{transform: translate(-5px, -5px)}
                    100%{transform: translate(0, 0)}
                }

                .triangle-float2 {
                    animation: float2 4s infinite;
                }

                @keyframes float3 {
                    0%{transform: translate(0, 0)}
                    50%{transform: translate(0, -10px)}
                    100%{transform: translate(0, 0)}
                }

                .triangle-float3 {
                    animation: float3 6s infinite;
                }
            </style></defs></svg>