<svg width="1920" height="1200" viewBox="0 0 1920 1200" fill="none" xmlns="http://www.w3.org/2000/svg">
<g clip-path="url(#clip0_80_437)">
<mask id="mask0_80_437" style="mask-type:luminance" maskUnits="userSpaceOnUse" x="0" y="0" width="1920" height="1200">
<path d="M0 1200L1920 1200L1920 0L0 0L0 1200Z" fill="white"/>
</mask>
<g mask="url(#mask0_80_437)">
<path d="M0 1200L1920 1200L1920 0L0 0L0 1200Z" fill="#0E2A47"/>
<path d="M0 1200H427.04L0 701.4L0 1200Z" fill="white" fill-opacity="0.1"/>
<path d="M427.04 1200L0.00012207 701.4V626.69L1075.89 1200H427.04Z" fill="white" fill-opacity="0.075"/>
<path d="M1075.89 1200L0 626.69V515.22L1188.52 1200H1075.89Z" fill="white" fill-opacity="0.05"/>
<path d="M1188.52 1200L-0.000244141 515.22V367.63L1197.82 1200H1188.52Z" fill="white" fill-opacity="0.025"/>
<path d="M1920 0.000244141L1064.91 0.000244141L1920 363.03V0.000244141Z" fill="black" fill-opacity="0.1"/>
<path d="M1920 363.03L1064.91 -0.00012207H1046.18L1920 771.15V363.03Z" fill="black" fill-opacity="0.075"/>
<path d="M1920 771.15L1046.18 -0.00012207L471.44 -0.00012207L1920 777.42V771.15Z" fill="black" fill-opacity="0.05"/>
<path d="M1920 777.42L471.44 0.00012207H228.26L1920 921.14V777.42Z" fill="black" fill-opacity="0.025"/>
</g>
</g>
<defs>
<clipPath id="clip0_80_437">
<rect width="1920" height="1200" fill="white"/>
</clipPath>
</defs>
</svg>
