<svg width="1920" height="2002" fill="none" xmlns="http://www.w3.org/2000/svg"><g clip-path="url(#a)"><mask id="b" style="mask-type:luminance" maskUnits="userSpaceOnUse" x="0" y="0" width="1920" height="2002"><path d="M0 2002h1920V0H0v2002Z" fill="#fff"/></mask><g mask="url(#b)"><path d="M0 2002h1920V0H0v2002Z" fill="#0E2A47"/><path d="M0 2002h427.04L0 1170.17V2002Z" fill="#fff" fill-opacity=".1"/><path d="M427.04 2002 0 1170.17v-124.64L1075.89 2002H427.04Z" fill="#fff" fill-opacity=".075"/><path d="M1075.89 2002 0 1045.53V859.559L1188.52 2002h-112.63Z" fill="#fff" fill-opacity=".05"/><path d="M1188.52 2002 0 859.559v-246.23L1197.82 2002h-9.3Z" fill="#fff" fill-opacity=".025"/><path d="M1920 0h-855.09L1920 605.655V0Z" fill="#000" fill-opacity=".1"/><path d="M1920 605.655 1064.91 0h-18.73L1920 1286.54V605.655Z" fill="#000" fill-opacity=".075"/><path d="M1920 1286.54 1046.18 0H471.44L1920 1297v-10.46Z" fill="#000" fill-opacity=".05"/><path d="M1920 1297 471.44 0H228.26L1920 1536.77V1297Z" fill="#000" fill-opacity=".025"/></g></g><defs><clipPath id="a"><path fill="#fff" d="M0 0h1920v2002H0z"/></clipPath></defs></svg>