<svg xmlns="http://www.w3.org/2000/svg" version="1.1" xmlns:xlink="http://www.w3.org/1999/xlink" xmlns:svgjs="http://svgjs.dev/svgjs" width="1920" height="1200" preserveAspectRatio="none" viewBox="0 0 1920 1200"><g mask="url(&quot;#SvgjsMask1010&quot;)" fill="none"><rect width="1920" height="1200" x="0" y="0" fill="rgba(215, 226, 238, 1)"></rect><path d="M1920 0L1743.29 0L1920 310.11z" fill="rgba(255, 255, 255, .1)"></path><path d="M1743.29 0L1920 310.11L1920 330.74L857.41 0z" fill="rgba(255, 255, 255, .075)"></path><path d="M857.4100000000001 0L1920 330.74L1920 358.55L734.1600000000001 0z" fill="rgba(255, 255, 255, .05)"></path><path d="M734.1600000000001 0L1920 358.55L1920 533.53L494.1200000000001 0z" fill="rgba(255, 255, 255, .025)"></path><path d="M0 1200L264.22 1200L0 632.66z" fill="rgba(0, 0, 0, .1)"></path><path d="M0 632.66L264.22 1200L597.08 1200L0 379.24z" fill="rgba(0, 0, 0, .075)"></path><path d="M0 379.24L597.08 1200L1303.37 1200L0 297.57z" fill="rgba(0, 0, 0, .05)"></path><path d="M0 297.57000000000005L1303.37 1200L1536.36 1200L0 261.52000000000004z" fill="rgba(0, 0, 0, .025)"></path></g><defs><mask id="SvgjsMask1010"><rect width="1920" height="1200" fill="#ffffff"></rect></mask></defs></svg>