<svg width="26" height="26" viewBox="0 0 26 26" fill="none" xmlns="http://www.w3.org/2000/svg">
<path d="M13.1521 0.855957C11.5178 0.855957 9.89939 1.17787 8.38942 1.80332C6.87945 2.42877 5.50746 3.34551 4.35178 4.50119C2.01777 6.83519 0.706543 10.0008 0.706543 13.3016C0.706543 18.8025 4.27843 23.4696 9.21934 25.1249C9.84162 25.2245 10.0407 24.8386 10.0407 24.5026V22.3993C6.59331 23.146 5.85902 20.7316 5.85902 20.7316C5.28653 19.2879 4.47756 18.9021 4.47756 18.9021C3.34501 18.1305 4.56468 18.1553 4.56468 18.1553C5.80924 18.2425 6.46886 19.4372 6.46886 19.4372C7.55163 21.329 9.38113 20.7689 10.0905 20.4702C10.2025 19.6613 10.5261 19.1137 10.8746 18.8025C8.11168 18.4914 5.21185 17.4211 5.21185 12.6793C5.21185 11.2978 5.68479 10.1902 6.49375 9.30652C6.36929 8.99538 5.9337 7.70104 6.61821 6.02088C6.61821 6.02088 7.66364 5.68485 10.0407 7.29034C11.024 7.01653 12.0943 6.87963 13.1521 6.87963C14.21 6.87963 15.2803 7.01653 16.2636 7.29034C18.6407 5.68485 19.6861 6.02088 19.6861 6.02088C20.3706 7.70104 19.935 8.99538 19.8105 9.30652C20.6195 10.1902 21.0924 11.2978 21.0924 12.6793C21.0924 17.4335 18.1802 18.4789 15.4048 18.7901C15.8528 19.1759 16.2636 19.9351 16.2636 21.0925V24.5026C16.2636 24.8386 16.4627 25.2369 17.0974 25.1249C22.0383 23.4572 25.5978 18.8025 25.5978 13.3016C25.5978 11.6672 25.2758 10.0488 24.6504 8.53884C24.0249 7.02886 23.1082 5.65687 21.9525 4.50119C20.7968 3.34551 19.4248 2.42877 17.9149 1.80332C16.4049 1.17787 14.7865 0.855957 13.1521 0.855957Z" fill="#0D2640"/>
</svg>
