<svg width="26" height="26" viewBox="0 0 26 26" fill="none" xmlns="http://www.w3.org/2000/svg">
<path d="M7.63178 0.554443H18.0861C22.0687 0.554443 25.3045 3.7903 25.3045 7.77289V18.2272C25.3045 20.1417 24.544 21.9777 23.1903 23.3314C21.8366 24.6851 20.0005 25.4457 18.0861 25.4457H7.63178C3.64919 25.4457 0.41333 22.2098 0.41333 18.2272V7.77289C0.41333 5.85844 1.17384 4.0224 2.52757 2.66868C3.88129 1.31496 5.71733 0.554443 7.63178 0.554443ZM7.38287 3.04356C6.19459 3.04356 5.05498 3.51561 4.21474 4.35585C3.37449 5.19609 2.90245 6.3357 2.90245 7.52398V18.4761C2.90245 20.9528 4.90619 22.9565 7.38287 22.9565H18.335C19.5233 22.9565 20.6629 22.4845 21.5031 21.6443C22.3434 20.804 22.8154 19.6644 22.8154 18.4761V7.52398C22.8154 5.04731 20.8117 3.04356 18.335 3.04356H7.38287ZM19.3929 4.91041C19.8055 4.91041 20.2012 5.07431 20.4929 5.36606C20.7847 5.65781 20.9486 6.05351 20.9486 6.46611C20.9486 6.8787 20.7847 7.2744 20.4929 7.56615C20.2012 7.8579 19.8055 8.02181 19.3929 8.02181C18.9803 8.02181 18.5846 7.8579 18.2928 7.56615C18.0011 7.2744 17.8372 6.8787 17.8372 6.46611C17.8372 6.05351 18.0011 5.65781 18.2928 5.36606C18.5846 5.07431 18.9803 4.91041 19.3929 4.91041ZM12.8589 6.77725C14.5093 6.77725 16.0921 7.43286 17.2591 8.59986C18.4261 9.76686 19.0817 11.3497 19.0817 13C19.0817 14.6504 18.4261 16.2332 17.2591 17.4002C16.0921 18.5672 14.5093 19.2229 12.8589 19.2229C11.2085 19.2229 9.62575 18.5672 8.45875 17.4002C7.29175 16.2332 6.63613 14.6504 6.63613 13C6.63613 11.3497 7.29175 9.76686 8.45875 8.59986C9.62575 7.43286 11.2085 6.77725 12.8589 6.77725ZM12.8589 9.26637C11.8687 9.26637 10.919 9.65974 10.2188 10.3599C9.51862 11.0601 9.12525 12.0098 9.12525 13C9.12525 13.9903 9.51862 14.94 10.2188 15.6402C10.919 16.3404 11.8687 16.7337 12.8589 16.7337C13.8492 16.7337 14.7988 16.3404 15.499 15.6402C16.1992 14.94 16.5926 13.9903 16.5926 13C16.5926 12.0098 16.1992 11.0601 15.499 10.3599C14.7988 9.65974 13.8492 9.26637 12.8589 9.26637Z" fill="#0D2640"/>
</svg>
