<svg width="1920" height="1200" viewBox="0 0 1920 1200" fill="none" xmlns="http://www.w3.org/2000/svg">
<g clip-path="url(#clip0_82_473)">
<mask id="mask0_82_473" style="mask-type:luminance" maskUnits="userSpaceOnUse" x="0" y="0" width="1920" height="1200">
<path d="M1920 0H0V1200H1920V0Z" fill="white"/>
</mask>
<g mask="url(#mask0_82_473)">
<path d="M1920 0H0V1200H1920V0Z" fill="#0E2A47"/>
<path d="M-951.579 390C-759.58 518.2 -375.58 1021 8.42139 1031C392.42 1041 584.42 434.6 968.421 440C1352.42 445.4 1738.11 1087.8 1928.42 1058C2118.74 1028.2 1921.68 444.4 1920 291" stroke="#3379C2" stroke-opacity="0.58" stroke-width="2"/>
<path d="M-116.457 147C75.5397 259 459.54 734.2 843.543 707C1227.54 679.8 1419.54 -52.7999 1803.54 11.0001C2187.54 74.8001 2740.25 910 2763.54 1026C2786.83 1142 2088.71 678 1920 591" stroke="#3379C2" stroke-opacity="0.58" stroke-width="2"/>
<path d="M-485.714 860C-293.71 768.6 90.2897 390.6 474.286 403C858.29 415.4 1050.29 907.2 1434.29 922C1818.29 936.8 2297.14 526.6 2394.29 477C2491.43 427.4 2014.86 634.6 1920 674" stroke="#0E2A47" stroke-width="2"/>
<path d="M-67.0869 489C124.91 530.8 508.91 794.6 892.913 698C1276.91 601.4 1468.91 10.6 1852.91 6.00005C2236.91 1.40005 2799.5 599 2812.91 675C2826.33 751 2098.58 443.8 1920 386" stroke="#0E2A47" stroke-width="2"/>
<path d="M-160.328 16C31.67 190.4 415.67 772.2 799.672 888C1183.67 1003.8 1375.67 585.2 1759.67 595C2143.67 604.8 2687.61 1046.2 2719.67 937C2751.74 827.8 2079.93 226.6 1920 49" stroke="#3379C2" stroke-opacity="0.58" stroke-width="2"/>
</g>
</g>
<defs>
<clipPath id="clip0_82_473">
<rect width="1920" height="1200" fill="white"/>
</clipPath>
</defs>
</svg>
