<svg width="1920" height="1200" fill="none" xmlns="http://www.w3.org/2000/svg"><g clip-path="url(#a)"><mask id="b" style="mask-type:luminance" maskUnits="userSpaceOnUse" x="0" y="0" width="1920" height="1200"><path d="M1920 0H0v1200h1920V0Z" fill="#fff"/></mask><g mask="url(#b)"><path d="M1920 0H0v1200h1920V0Z" fill="#0E2A47"/><path d="M-951.579 390c191.999 128.2 575.999 631 960 641 383.999 10 575.999-596.4 960-591 383.999 5.4 769.689 647.8 959.999 618 190.32-29.8-6.74-613.6-8.42-767" stroke="#3379C2" stroke-opacity=".58" stroke-width="2"/><path d="M-116.457 147c191.997 112 575.997 587.2 960 560C1227.54 679.8 1419.54-52.8 1803.54 11c384 63.8 936.71 899 960 1015 23.29 116-674.83-348-843.54-435" stroke="#3379C2" stroke-opacity=".58" stroke-width="2"/><path d="M-485.714 860c192.004-91.4 576.004-469.4 960-457 384.004 12.4 576.004 504.2 960.004 519 384 14.8 862.85-395.4 960-445 97.14-49.6-379.43 157.6-474.29 197" stroke="#0E2A47" stroke-width="2"/><path d="M-67.087 489c191.997 41.8 575.997 305.6 960 209C1276.91 601.4 1468.91 10.6 1852.91 6c384-4.6 946.59 593 960 669 13.42 76-714.33-231.2-892.91-289" stroke="#0E2A47" stroke-width="2"/><path d="M-160.328 16c191.998 174.4 575.998 756.2 960 872 383.998 115.8 575.998-302.8 959.998-293 384 9.8 927.94 451.2 960 342 32.07-109.2-639.74-710.4-799.67-888" stroke="#3379C2" stroke-opacity=".58" stroke-width="2"/></g></g><defs><clipPath id="a"><path fill="#fff" d="M0 0h1920v1200H0z"/></clipPath></defs></svg>