<svg width="23" height="24" viewBox="0 0 23 24" fill="none" xmlns="http://www.w3.org/2000/svg">
<path d="M20.2174 0.799072C20.8776 0.799072 21.5107 1.06132 21.9775 1.52812C22.4443 1.99492 22.7065 2.62804 22.7065 3.28819V20.712C22.7065 21.3722 22.4443 22.0053 21.9775 22.4721C21.5107 22.9389 20.8776 23.2012 20.2174 23.2012H2.79356C2.13341 23.2012 1.50029 22.9389 1.03349 22.4721C0.566689 22.0053 0.304443 21.3722 0.304443 20.712V3.28819C0.304443 2.62804 0.566689 1.99492 1.03349 1.52812C1.50029 1.06132 2.13341 0.799072 2.79356 0.799072H20.2174ZM19.5951 20.0898V13.4936C19.5951 12.4175 19.1677 11.3856 18.4068 10.6247C17.6459 9.86378 16.6139 9.43632 15.5379 9.43632C14.48 9.43632 13.2479 10.0835 12.6505 11.0543V9.67279H9.17816V20.0898H12.6505V13.9541C12.6505 12.9958 13.4221 12.2117 14.3804 12.2117C14.8425 12.2117 15.2857 12.3953 15.6125 12.722C15.9392 13.0488 16.1228 13.492 16.1228 13.9541V20.0898H19.5951ZM5.13334 7.71883C5.68787 7.71883 6.21969 7.49854 6.6118 7.10643C7.00391 6.71432 7.2242 6.1825 7.2242 5.62797C7.2242 4.47053 6.29078 3.52466 5.13334 3.52466C4.57551 3.52466 4.04052 3.74626 3.64608 4.1407C3.25163 4.53515 3.03003 5.07014 3.03003 5.62797C3.03003 6.78541 3.9759 7.71883 5.13334 7.71883ZM6.86328 20.0898V9.67279H3.41585V20.0898H6.86328Z" fill="#0D2640"/>
</svg>
