<svg width="348" height="80" fill="none" xmlns="http://www.w3.org/2000/svg"><path d="M128.616 67h-4.968l-13.027-17.575-3.856 3.46V67h-4.203V30.86h4.203v18.02a128.377 128.377 0 0 1 2.892-3.188c.988-1.071 1.969-2.15 2.941-3.238l10.555-11.594h4.92l-14.387 15.672L128.616 67Zm14.758-27.587c2.307 0 4.284.511 5.932 1.533 1.648 1.022 2.909 2.455 3.782 4.301.874 1.83 1.31 3.972 1.31 6.427v2.546h-18.712c.049 3.18.84 5.603 2.373 7.268 1.533 1.664 3.691 2.496 6.477 2.496 1.713 0 3.23-.156 4.548-.47a25.073 25.073 0 0 0 4.103-1.384v3.61a19.979 19.979 0 0 1-4.078 1.334c-1.335.28-2.917.42-4.747.42-2.603 0-4.877-.527-6.822-1.582-1.928-1.07-3.428-2.636-4.499-4.696-1.071-2.06-1.607-4.582-1.607-7.564 0-2.917.486-5.439 1.459-7.565.989-2.142 2.373-3.79 4.153-4.943 1.796-1.154 3.905-1.73 6.328-1.73Zm-.05 3.362c-2.191 0-3.938.717-5.24 2.15-1.302 1.434-2.077 3.437-2.324 6.008h14.337c-.016-1.615-.272-3.033-.766-4.252-.478-1.236-1.211-2.192-2.2-2.868-.989-.692-2.258-1.038-3.807-1.038Zm13.769-2.867h4.4l5.982 15.721c.346.923.667 1.813.964 2.67.297.84.56 1.648.791 2.422.231.775.412 1.525.544 2.25h.173c.231-.824.56-1.904.989-3.238.428-1.352.89-2.728 1.384-4.129l5.661-15.696h4.424L170.614 70.98c-.626 1.664-1.359 3.114-2.2 4.35-.824 1.236-1.829 2.184-3.015 2.843-1.187.676-2.621 1.014-4.302 1.014-.774 0-1.458-.05-2.051-.149a12.689 12.689 0 0 1-1.533-.296v-3.288c.363.082.799.157 1.31.223.528.065 1.071.098 1.632.098 1.021 0 1.903-.197 2.645-.593.758-.379 1.409-.94 1.952-1.68.544-.742 1.014-1.624 1.409-2.646l1.484-3.807-10.852-27.141ZM203.244 67l-12.137-31.987h-.198c.066.676.123 1.5.173 2.472.049.973.09 2.035.123 3.189.033 1.137.05 2.299.05 3.485V67h-3.906V30.86h6.229l11.445 30.06h.174l11.618-30.06h6.179V67h-4.152V43.863c0-1.071.016-2.142.049-3.214.033-1.087.074-2.11.124-3.065.049-.972.098-1.813.148-2.521h-.198L206.68 67h-3.436Zm39.155-27.537c3.23 0 5.628.725 7.193 2.175 1.566 1.45 2.349 3.766 2.349 6.946V67h-2.991l-.791-4.005h-.198c-.758.99-1.549 1.822-2.373 2.497-.824.66-1.78 1.162-2.868 1.508-1.071.33-2.389.494-3.955.494-1.648 0-3.114-.288-4.4-.865a6.854 6.854 0 0 1-3.016-2.62c-.725-1.17-1.087-2.653-1.087-4.45 0-2.702 1.071-4.778 3.213-6.229 2.143-1.45 5.406-2.24 9.789-2.373l4.672-.197v-1.657c0-2.34-.503-3.98-1.508-4.919-1.005-.94-2.422-1.409-4.251-1.409-1.418 0-2.769.206-4.054.618a27.741 27.741 0 0 0-3.659 1.459l-1.261-3.115c1.22-.626 2.621-1.162 4.203-1.607a18.354 18.354 0 0 1 4.993-.667Zm5.488 14.189-4.128.173c-3.379.131-5.76.683-7.144 1.656-1.385.972-2.077 2.348-2.077 4.128 0 1.549.47 2.694 1.409 3.436.94.741 2.184 1.112 3.733 1.112 2.406 0 4.375-.667 5.908-2.002 1.532-1.335 2.299-3.337 2.299-6.007v-2.496Zm30.034 5.932c0 1.73-.437 3.189-1.311 4.375-.857 1.17-2.092 2.052-3.707 2.645-1.599.594-3.511.89-5.735.89-1.895 0-3.535-.148-4.919-.445-1.385-.296-2.596-.716-3.634-1.26v-3.782c1.104.544 2.422 1.038 3.955 1.483a16.76 16.76 0 0 0 4.697.667c2.34 0 4.037-.379 5.092-1.137 1.054-.758 1.582-1.788 1.582-3.09 0-.741-.214-1.392-.643-1.953-.412-.576-1.112-1.128-2.101-1.656-.989-.543-2.357-1.137-4.103-1.78-1.731-.659-3.23-1.31-4.499-1.952-1.253-.66-2.225-1.459-2.917-2.398-.676-.94-1.014-2.159-1.014-3.659 0-2.29.923-4.045 2.769-5.265 1.862-1.236 4.301-1.854 7.317-1.854 1.631 0 3.156.165 4.573.495 1.433.313 2.768.741 4.004 1.285l-1.384 3.288a25.42 25.42 0 0 0-3.584-1.212 15.377 15.377 0 0 0-3.881-.494c-1.895 0-3.354.313-4.376.94-1.005.626-1.507 1.483-1.507 2.57 0 .84.23 1.533.692 2.077.478.544 1.236 1.054 2.274 1.532s2.406 1.038 4.103 1.681c1.698.626 3.164 1.277 4.4 1.953 1.236.66 2.184 1.467 2.843 2.422.676.94 1.014 2.151 1.014 3.634Zm15.35 4.549c.676 0 1.368-.058 2.077-.173.708-.116 1.285-.256 1.73-.42v3.188c-.478.214-1.145.396-2.002.544a14.22 14.22 0 0 1-2.472.222c-1.434 0-2.736-.247-3.906-.741-1.17-.511-2.109-1.368-2.818-2.571-.692-1.203-1.038-2.867-1.038-4.993V43.12h-3.856V41.12l3.881-1.607 1.631-5.883h2.472v6.279h7.935v3.213h-7.935v15.944c0 1.698.387 2.966 1.162 3.807.791.84 1.837 1.26 3.139 1.26Zm19.726-24.72c2.307 0 4.285.511 5.933 1.533 1.648 1.022 2.908 2.455 3.782 4.301.873 1.83 1.31 3.972 1.31 6.427v2.546h-18.713c.05 3.18.841 5.603 2.373 7.268 1.533 1.664 3.692 2.496 6.477 2.496 1.714 0 3.23-.156 4.548-.47a25.083 25.083 0 0 0 4.104-1.384v3.61a19.987 19.987 0 0 1-4.079 1.334c-1.335.28-2.917.42-4.746.42-2.604 0-4.878-.527-6.823-1.582-1.928-1.07-3.427-2.636-4.499-4.696-1.071-2.06-1.606-4.582-1.606-7.564 0-2.917.486-5.439 1.458-7.565.989-2.142 2.373-3.79 4.153-4.943 1.796-1.154 3.906-1.73 6.328-1.73Zm-.049 3.362c-2.192 0-3.939.717-5.241 2.15-1.302 1.434-2.076 3.437-2.323 6.008h14.337c-.017-1.615-.272-3.033-.767-4.252-.477-1.236-1.211-2.192-2.2-2.868-.988-.692-2.257-1.038-3.806-1.038Zm30.355-3.362c.544 0 1.112.033 1.706.1.593.049 1.12.123 1.582.222l-.52 3.806a11.363 11.363 0 0 0-1.483-.271 12.767 12.767 0 0 0-1.532-.1 7.336 7.336 0 0 0-3.09.668 7.336 7.336 0 0 0-2.522 1.879c-.725.807-1.293 1.788-1.705 2.941-.412 1.137-.618 2.406-.618 3.807V67h-4.128V39.908h3.411l.445 4.993h.173a13.27 13.27 0 0 1 2.027-2.744 9.126 9.126 0 0 1 2.744-2.002c1.054-.495 2.225-.742 3.51-.742Z" fill="#fff"/><path fill-rule="evenodd" clip-rule="evenodd" d="M0 8.25A8.25 8.25 0 0 1 8.25 0h22.77a8.25 8.25 0 0 1 6.44 3.094l5.774 7.219H74.25a8.25 8.25 0 0 1 8.25 8.25V66a8.25 8.25 0 0 1-8.25 8.25h-66A8.25 8.25 0 0 1 0 66V8.25Zm45.375 36.02a8.25 8.25 0 1 0-8.25 0v9.355a4.125 4.125 0 0 0 8.25 0V44.27Z" fill="#6A99F0"/></svg>