<svg width="106" height="83" viewBox="0 0 106 83" fill="none" xmlns="http://www.w3.org/2000/svg">
<g id="repetir">
<path id="Vector" d="M77.2748 34.3293H104.283C104.61 34.3294 104.929 34.4225 105.205 34.5976C105.48 34.7728 105.7 35.0228 105.838 35.3183C105.976 35.6138 106.028 35.9426 105.986 36.2662C105.944 36.5898 105.811 36.8948 105.602 37.1456L92.0979 53.3562C91.9368 53.5495 91.7351 53.705 91.5072 53.8117C91.2793 53.9183 91.0307 53.9737 90.7791 53.9737C90.5275 53.9737 90.2789 53.9183 90.051 53.8117C89.8231 53.705 89.6214 53.5495 89.4603 53.3562L75.9559 37.1456C75.7471 36.8948 75.614 36.5898 75.5723 36.2662C75.5306 35.9426 75.5819 35.6138 75.7203 35.3183C75.8587 35.0228 76.0784 34.7728 76.3537 34.5976C76.629 34.4225 76.9485 34.3294 77.2748 34.3293ZM1.71659 48.0672H28.7252C29.0515 48.067 29.371 47.9739 29.6463 47.7988C29.9216 47.6236 30.1413 47.3737 30.2797 47.0782C30.4181 46.7827 30.4694 46.4539 30.4277 46.1303C30.386 45.8066 30.2529 45.5016 30.044 45.2509L16.5397 29.0402C16.3786 28.847 16.1769 28.6915 15.949 28.5848C15.7211 28.4781 15.4725 28.4228 15.2209 28.4228C14.9693 28.4228 14.7207 28.4781 14.4928 28.5848C14.2649 28.6915 14.0632 28.847 13.9021 29.0402L0.397755 45.2509C0.188924 45.5016 0.0558474 45.8066 0.0141083 46.1303C-0.0276308 46.4539 0.0236953 46.7827 0.162077 47.0782C0.300458 47.3737 0.520166 47.6236 0.795473 47.7988C1.07078 47.9739 1.39029 48.067 1.71659 48.0672Z" fill="white"/>
<path id="Vector_2" fill-rule="evenodd" clip-rule="evenodd" d="M52.9999 6.85376C42.3393 6.85376 32.8052 11.7101 26.5064 19.3415C26.2252 19.706 25.8735 20.0103 25.4723 20.2362C25.071 20.4621 24.6285 20.605 24.1709 20.6565C23.7134 20.7079 23.2501 20.6668 22.8088 20.5357C22.3674 20.4045 21.9569 20.1859 21.6017 19.8929C21.2465 19.5999 20.9539 19.2385 20.7412 18.8301C20.5285 18.4217 20.4001 17.9748 20.3636 17.5158C20.3271 17.0568 20.3832 16.5951 20.5287 16.1583C20.6742 15.7214 20.9061 15.3183 21.2105 14.9728C26.2399 8.88371 32.9123 4.36728 40.4343 1.96071C47.9563 -0.445851 56.0112 -0.641273 63.6411 1.39769C71.2709 3.43666 78.1545 7.6242 83.4733 13.4623C88.792 19.3003 92.322 26.5432 93.6433 34.3295H86.6576C85.0741 26.5719 80.859 19.5998 74.7256 14.5929C68.5923 9.5861 60.9174 6.85214 52.9999 6.85376ZM19.3421 48.0673C20.6425 54.4185 23.7132 60.2722 28.1995 64.9521C32.6857 69.632 38.4045 72.9472 44.6951 74.5146C50.9857 76.0821 57.5914 75.8378 63.749 73.8101C69.9067 71.7823 75.365 68.0538 79.4933 63.0553C79.7746 62.6908 80.1263 62.3865 80.5275 62.1606C80.9287 61.9347 81.3713 61.7917 81.8288 61.7403C82.2864 61.6889 82.7496 61.7299 83.191 61.8611C83.6324 61.9923 84.0429 62.2109 84.398 62.5039C84.7532 62.7969 85.0459 63.1583 85.2586 63.5667C85.4713 63.975 85.5997 64.422 85.6362 64.881C85.6727 65.34 85.6165 65.8017 85.4711 66.2385C85.3256 66.6754 85.0937 67.0785 84.7893 67.424C79.7599 73.5131 73.0874 78.0295 65.5655 80.4361C58.0435 82.8426 49.9885 83.0381 42.3587 80.9991C34.7289 78.9601 27.8452 74.7726 22.5265 68.9345C17.2078 63.0965 13.6778 55.8536 12.3564 48.0673H19.3421Z" fill="white"/>
</g>
</svg>
