<svg width="78" height="54" fill="none" xmlns="http://www.w3.org/2000/svg"><path fill-rule="evenodd" clip-rule="evenodd" d="M24 27a15 15 0 1 1 30 0 15 15 0 0 1-30 0Zm15-9a9 9 0 1 0 0 18 9 9 0 0 0 0-18Z" fill="#fff"/><path fill-rule="evenodd" clip-rule="evenodd" d="M8.292 21.584C6.616 24 6 25.892 6 27c0 1.108.616 3 2.292 5.416 1.624 2.332 4.032 4.864 7.08 7.204C21.48 44.308 29.852 48 39 48s17.52-3.692 23.628-8.38c3.048-2.34 5.456-4.872 7.08-7.204C71.384 30 72 28.108 72 27c0-1.108-.616-3-2.292-5.416-1.624-2.332-4.032-4.864-7.08-7.204C56.52 9.692 48.148 6 39 6s-17.52 3.692-23.628 8.38c-3.048 2.34-5.456 4.872-7.08 7.204ZM11.716 9.62C18.64 4.308 28.264 0 39 0s20.36 4.308 27.28 9.62c3.468 2.66 6.332 5.628 8.356 8.544C76.604 21 78 24.108 78 27c0 2.892-1.4 6-3.364 8.836-2.024 2.916-4.888 5.88-8.352 8.544C59.364 49.692 49.736 54 39 54s-20.36-4.308-27.28-9.62c-3.468-2.66-6.332-5.628-8.356-8.544C1.4 33 0 29.892 0 27c0-2.892 1.4-6 3.364-8.836 2.024-2.916 4.888-5.88 8.352-8.544Z" fill="#fff"/></svg>