<svg width="23" height="24" viewBox="0 0 23 24" fill="none" xmlns="http://www.w3.org/2000/svg">
<path fill-rule="evenodd" clip-rule="evenodd" d="M21.448 2.86331C21.5556 2.74024 21.638 2.59718 21.6903 2.44229C21.7426 2.28741 21.764 2.12373 21.753 1.9606C21.7421 1.79748 21.6992 1.6381 21.6267 1.49158C21.5541 1.34505 21.4535 1.21424 21.3304 1.10661C21.2073 0.998989 21.0643 0.916659 20.9094 0.864324C20.7545 0.811989 20.5908 0.790673 20.4277 0.801594C20.2646 0.812515 20.1052 0.85546 19.9587 0.927974C19.8122 1.00049 19.6813 1.10115 19.5737 1.22422L13.214 8.49246L7.81635 1.29641C7.70043 1.14184 7.5501 1.01638 7.37729 0.929976C7.20447 0.843569 7.01392 0.798584 6.8207 0.798584H1.84246C1.61133 0.798584 1.38477 0.862946 1.18816 0.984458C0.991547 1.10597 0.832657 1.27983 0.729293 1.48656C0.625928 1.69329 0.582173 1.92472 0.60293 2.15491C0.623687 2.38511 0.708135 2.60498 0.846813 2.78988L8.85805 13.4707L2.14987 21.1372C2.04224 21.2603 1.95991 21.4033 1.90758 21.5582C1.85524 21.7131 1.83393 21.8768 1.84485 22.0399C1.85577 22.203 1.89871 22.3624 1.97123 22.5089C2.04374 22.6555 2.14441 22.7863 2.26748 22.8939C2.39055 23.0015 2.53361 23.0838 2.6885 23.1362C2.84338 23.1885 3.00706 23.2098 3.17019 23.1989C3.33331 23.188 3.49269 23.145 3.63921 23.0725C3.78574 23 3.91655 22.8993 4.02418 22.7763L10.3839 15.5068L15.7815 22.7029C15.8975 22.8574 16.0478 22.9829 16.2206 23.0693C16.3934 23.1557 16.584 23.2007 16.7772 23.2007H21.7554C21.9866 23.2007 22.2131 23.1363 22.4097 23.0148C22.6063 22.8933 22.7652 22.7194 22.8686 22.5127C22.972 22.306 23.0157 22.0745 22.995 21.8443C22.9742 21.6141 22.8898 21.3943 22.7511 21.2094L14.7398 10.5286L21.448 2.86331ZM17.3995 20.7116L4.33158 3.28771H6.19842L19.2663 20.7116H17.3995Z" fill="#0D2640"/>
</svg>
